<svg enable-background="new 0 0 256 256" height="20" viewBox="0 0 256 256" width="20" xmlns="http://www.w3.org/2000/svg"><path d="m82.74 2.507v.014c-14.226-.323-25.67 11.128-25.67 25.085v17.855 24.358 131.033c.269.035.534.113.768.272l8.113 5.497c.601.407 1.389.407 1.99 0l8.112-5.497c.601-.407 1.389-.407 1.99 0l8.112 5.497c.601.407 1.389.407 1.99 0l8.114-5.497c.601-.407 1.389-.407 1.989 0l8.116 5.497c.601.407 1.389.407 1.989 0l8.114-5.497c.601-.407 1.389-.407 1.989 0l8.113 5.497c.601.407 1.389.407 1.99 0l8.113-5.497c.601-.407 1.389-.407 1.99 0l8.33 5.643c.487.33.779.88.779 1.469v19.88c0 13.855 11.148 25.223 25.099 25.377 14.115.165 25.67-11.231 25.67-25.377 0-29.26 0-174.787 0-200.51 0-13.957 11.444-25.421 25.67-25.099-26.835 0-114.452 0-141.47 0z" fill="#a0d85d"/><circle cx="127.508" cy="84.34" fill="#facb35" r="29.453"/><path d="m147.77 228.115c0-1.54 0-14.88 0-19.88 0-.588-.292-1.138-.779-1.468l-8.33-5.644c-.601-.407-1.389-.407-1.99 0l-8.113 5.497c-.601.407-1.389.407-1.99 0l-8.113-5.497c-.601-.407-1.389-.407-1.989 0l-8.114 5.497c-.601.407-1.389.407-1.989 0l-8.116-5.498c-.601-.407-1.389-.407-1.989 0l-8.114 5.497c-.601.407-1.389.407-1.99 0l-8.112-5.497c-.601-.407-1.389-.407-1.99 0l-8.112 5.497c-.601.407-1.389.407-1.99 0l-8.113-5.497c-.601-.407-1.389-.407-1.989 0l-8.116 5.498c-.601.407-1.388.407-1.989 0l-8.119-5.498c-.601-.407-1.388-.407-1.989 0l-8.116 5.498c-.601.407-1.388.407-1.989 0l-8.123-5.499c-.6-.406-1.388-.406-1.988 0l-8.339 5.645c-.487.33-.779.88-.779 1.469v19.88c0 14.02 11.365 25.385 25.385 25.385h141.469c-14.02 0-25.385-11.365-25.385-25.385z" fill="#bbed74"/><path d="m224.315 2.507h-.106c-14.226-.323-25.67 11.142-25.67 25.099v27.458c.53.199 1.13.147 1.612-.18l8.116-5.498c.601-.407 1.388-.407 1.989 0l8.119 5.498c.601.407 1.388.407 1.989 0l8.116-5.498c.6-.407 1.388-.407 1.989-.001l8.123 5.499c.6.407 1.388.407 1.988 0l8.339-5.645c.487-.33.779-.88.779-1.468 0-5.075 0-18.313 0-19.88.001-14.019-11.364-25.384-25.383-25.384z" fill="#bbed74"/><path d="m173.154 256h-141.468c-15.375 0-27.885-12.509-27.885-27.885v-19.88c0-1.42.702-2.742 1.877-3.539l8.339-5.645c1.455-.984 3.335-.984 4.791 0l7.717 5.224 7.708-5.222c1.455-.988 3.335-.988 4.792-.002l7.712 5.223 7.709-5.222c1.457-.986 3.339-.986 4.794.001l7.705 5.221 7.705-5.221c1.456-.989 3.339-.987 4.795 0l7.705 5.221 7.706-5.221c1.456-.988 3.338-.988 4.794 0l7.708 5.221 7.706-5.221c1.457-.989 3.339-.987 4.795 0l7.705 5.221 7.705-5.221c1.455-.988 3.337-.988 4.794 0l8.33 5.644c1.175.797 1.876 2.119 1.876 3.538v19.88c0 12.619 10.266 22.885 22.884 22.885 1.381 0 2.5 1.119 2.5 2.5s-1.118 2.5-2.499 2.5zm-164.353-47.379v19.494c0 12.619 10.266 22.885 22.885 22.885h125.553c-7.229-5.043-11.968-13.421-11.968-22.885v-19.495l-7.604-5.151-7.706 5.221c-1.456.988-3.338.988-4.794 0l-7.705-5.221-7.706 5.221c-1.456.989-3.338.986-4.794 0l-7.708-5.221-7.706 5.221c-1.455.987-3.337.988-4.794 0l-7.705-5.221-7.705 5.221c-1.455.988-3.337.988-4.794 0l-7.705-5.221-7.708 5.222c-1.455.985-3.335.985-4.792.001l-7.712-5.223-7.709 5.222c-1.457.986-3.337.985-4.792.001l-7.717-5.224z"/><path d="m173.175 255.994c-.112 0-.223-.001-.335-.002-15.201-.167-27.57-12.673-27.57-27.877v-19.495l-7.604-5.151-7.706 5.221c-1.457.986-3.337.985-4.792.001l-7.707-5.222-7.706 5.221c-1.456.989-3.338.986-4.794 0l-7.708-5.221-7.706 5.221c-1.454.986-3.335.986-4.792.002l-7.708-5.223-7.705 5.221c-1.457.986-3.336.984-4.792.002l-7.95-5.387c-1.156-.238-2.031-1.262-2.031-2.453v-173.247c0-7.491 2.953-14.504 8.315-19.746 5.279-5.16 12.247-7.938 19.638-7.843.072-.007.144-.01.217-.01h140.261c.421-.009.842-.008 1.266.001 1.37.031 2.459 1.158 2.443 2.527s-1.13 2.472-2.5 2.472h-1.146c-5.728.138-11.092 2.392-15.206 6.413-4.396 4.298-6.818 10.046-6.818 16.186v200.51c0 7.51-2.94 14.552-8.279 19.828-5.26 5.2-12.204 8.051-19.585 8.051zm-35.509-57.681c.834 0 1.669.246 2.397.74l8.33 5.644c1.175.797 1.876 2.119 1.876 3.538v19.88c0 12.478 10.15 22.74 22.626 22.877 6.181.039 11.966-2.273 16.348-6.604 4.381-4.33 6.794-10.109 6.794-16.272v-200.511c0-7.497 2.956-14.515 8.323-19.761 1.069-1.045 2.207-1.992 3.403-2.838h-124.762c-.106.01-.212.017-.318.013-6.147-.143-11.929 2.14-16.303 6.415-4.392 4.293-6.81 10.036-6.81 16.171v171.671l7.375 4.998 7.705-5.221c1.456-.989 3.339-.987 4.795 0l7.705 5.221 7.706-5.221c1.456-.988 3.338-.988 4.794 0l7.708 5.221 7.706-5.221c1.457-.989 3.339-.987 4.795 0l7.705 5.221 7.705-5.221c.728-.493 1.563-.74 2.397-.74zm-81.23 4.879c.001.001.002.002.003.003z"/><path d="m174.167 184.629h-23.391c-1.381 0-2.5-1.119-2.5-2.5s1.119-2.5 2.5-2.5h23.391c1.381 0 2.5 1.119 2.5 2.5s-1.119 2.5-2.5 2.5z"/><path d="m174.167 135.662h-23.391c-1.381 0-2.5-1.119-2.5-2.5s1.119-2.5 2.5-2.5h23.391c1.381 0 2.5 1.119 2.5 2.5s-1.119 2.5-2.5 2.5z"/><path d="m164.609 39.011h-74.373c-1.381 0-2.5-1.119-2.5-2.5s1.119-2.5 2.5-2.5h74.373c1.381 0 2.5 1.119 2.5 2.5s-1.119 2.5-2.5 2.5z"/><path d="m174.167 151.984h-23.391c-1.381 0-2.5-1.119-2.5-2.5s1.119-2.5 2.5-2.5h23.391c1.381 0 2.5 1.119 2.5 2.5s-1.119 2.5-2.5 2.5z"/><path d="m174.167 168.307h-23.391c-1.381 0-2.5-1.119-2.5-2.5s1.119-2.5 2.5-2.5h23.391c1.381 0 2.5 1.119 2.5 2.5s-1.119 2.5-2.5 2.5z"/><path d="m136.68 184.629h-28.454c-1.381 0-2.5-1.119-2.5-2.5s1.119-2.5 2.5-2.5h28.454c1.381 0 2.5 1.119 2.5 2.5s-1.119 2.5-2.5 2.5z"/><path d="m136.68 135.662h-57.669c-1.381 0-2.5-1.119-2.5-2.5s1.119-2.5 2.5-2.5h57.669c1.381 0 2.5 1.119 2.5 2.5s-1.119 2.5-2.5 2.5z"/><path d="m136.68 151.984h-57.669c-1.381 0-2.5-1.119-2.5-2.5s1.119-2.5 2.5-2.5h57.669c1.381 0 2.5 1.119 2.5 2.5s-1.119 2.5-2.5 2.5z"/><path d="m136.68 168.307h-57.669c-1.381 0-2.5-1.119-2.5-2.5s1.119-2.5 2.5-2.5h57.669c1.381 0 2.5 1.119 2.5 2.5s-1.119 2.5-2.5 2.5z"/><path d="m239.587 57.693c-.833 0-1.667-.246-2.395-.738l-7.717-5.224-7.708 5.222c-1.456.988-3.338.988-4.794 0l-7.711-5.222-7.708 5.222c-1.135.771-2.59.938-3.89.452-.977-.365-1.625-1.299-1.625-2.342v-27.458c0-7.497 2.956-14.515 8.323-19.761 5.344-5.225 12.409-8.001 19.904-7.837l.049-.001c15.375 0 27.885 12.509 27.885 27.885v19.88c0 1.421-.703 2.744-1.88 3.54l-8.337 5.644c-.728.492-1.562.738-2.396.738zm-10.111-11.117c.834 0 1.668.247 2.396.74l7.715 5.223 7.612-5.154v-19.493c0-12.619-10.266-22.885-22.885-22.885h-.105c-6.203-.141-11.979 2.139-16.352 6.413-4.396 4.298-6.818 10.046-6.818 16.186v23.657l5.826-3.946c1.457-.986 3.337-.985 4.792-.001l7.713 5.223 7.708-5.222c.729-.494 1.564-.741 2.398-.741z"/><path d="m131.346 100.698h-12.274c-1.381 0-2.5-1.119-2.5-2.5s1.119-2.5 2.5-2.5h12.274c2.442 0 4.429-1.986 4.429-4.429s-1.987-4.43-4.429-4.43h-7.675c-5.199 0-9.429-4.229-9.429-9.429s4.229-9.429 9.429-9.429h10.877c1.381 0 2.5 1.119 2.5 2.5s-1.119 2.5-2.5 2.5h-10.877c-2.442 0-4.429 1.986-4.429 4.429s1.987 4.429 4.429 4.429h7.675c5.199 0 9.429 4.23 9.429 9.43s-4.23 9.429-9.429 9.429z"/><path d="m127.508 105.438c-1.381 0-2.5-1.119-2.5-2.5v-37.196c0-1.381 1.119-2.5 2.5-2.5s2.5 1.119 2.5 2.5v37.196c0 1.381-1.119 2.5-2.5 2.5z"/><path d="m127.508 116.293c-17.619 0-31.953-14.334-31.953-31.953s14.334-31.953 31.953-31.953 31.953 14.334 31.953 31.953-14.334 31.953-31.953 31.953zm0-58.906c-14.862 0-26.953 12.091-26.953 26.953s12.091 26.953 26.953 26.953 26.953-12.091 26.953-26.953-12.091-26.953-26.953-26.953z"/></svg>